<svg xmlns="http://www.w3.org/2000/svg" width="256" height="256" viewBox="0 0 256 256">
  <defs>
    <linearGradient id="g" x1="0" y1="0" x2="1" y2="1">
      <stop offset="0%" stop-color="#667eea"/>
      <stop offset="100%" stop-color="#764ba2"/>
    </linearGradient>
    <filter id="s" x="-20%" y="-20%" width="140%" height="140%">
      <feDropShadow dx="0" dy="8" stdDeviation="10" flood-color="#000" flood-opacity="0.2"/>
    </filter>
  </defs>
  <rect x="16" y="16" width="224" height="224" rx="48" fill="url(#g)" filter="url(#s)"/>
  <g fill="#fff" stroke="none" transform="translate(64,64)">
    <path d="M64 0c35.3 0 64 28.7 64 64s-28.7 64-64 64S0 99.3 0 64 28.7 0 64 0zm0 16C37.5 16 16 37.5 16 64s21.5 48 48 48 48-21.5 48-48S90.5 16 64 16z" opacity="0.2"/>
    <path d="M28 88V24h68v16H48v16h40v16H48v16h48v16z"/>
  </g>
</svg> 